# AST/ASF file generated using VICON BodyLanguage
# -----------------------------------------------
:version 1.10
:name VICON
:units
  mass 1.0
  length 0.45
  angle deg
:documentation
   .ast/.asf automatically generated from VICON data using
   VICON BodyBuilder and BodyLanguage model FoxedUp or BRILLIANT.MOD
:root
   order TX TY TZ RX RY RZ
   axis XYZ
   position 0 0 0  
   orientation 0 0 0 
:bonedata
  begin
     id 1 
     name lhipjoint
     direction 0.589753 -0.68606 0.426044 
     length 2.54082 
     axis 0 0 0  XYZ
  end
  begin
     id 2 
     name lfemur
     direction 0.34202 -0.939693 0  
     length 7.04539  
     axis 0 0 20  XYZ
    dof rx ry rz
    limits (-160.0 20.0)
           (-70.0 70.0)
           (-60.0 70.0)
  end
  begin
     id 3 
     name ltibia
     direction 0.34202 -0.939693 0   
     length 7.83772   
     axis 0 0 20   XYZ
    dof rx
    limits (-10.0 170.0)
  end
  begin
     id 4 
     name lfoot
     direction 0.0596604 -0.163915 0.984669   
     length 2.39542   
     axis -90 7.62852e-016 20   XYZ
    dof rx rz
    limits (-45.0 90.0)
           (-70.0 20.0)
  end
  begin
     id 5 
     name ltoes
     direction 1.53514e-011 -4.21954e-011 1   
     length 1.2047   
     axis -90 7.62852e-016 20   XYZ
    dof rx
    limits (-90.0 20.0)
  end
  begin
     id 6 
     name rhipjoint
     direction -0.580585 -0.69168 0.429534   
     length 2.52018  
     axis 0 0 0  XYZ 
  end
  begin
     id 7 
     name rfemur
     direction -0.34202 -0.939693 0   
     length 7.0101   
     axis 0 0 -20   XYZ
    dof rx ry rz
    limits (-160.0 20.0)
           (-70.0 70.0)
           (-70.0 60.0)
  end
  begin
     id 8 
     name rtibia
     direction -0.34202 -0.939693 0   
     length 7.70628   
     axis 0 0 -20   XYZ
    dof rx
    limits (-10.0 170.0)
 end
 begin
     id 9 
     name rfoot
     direction -0.0696237 -0.19129 0.979061   
     length 2.52466  
     axis -90 -7.62852e-016 -20   XYZ
    dof rx rz
    limits (-45.0 90.0)
           (-20.0 70.0)
  end
  begin
     id 10 
     name rtoes
     direction -1.53519e-011 -4.21793e-011 1   
     length 1.266   
     axis -90 -7.62852e-016 -20   XYZ
    dof rx
    limits (-90.0 20.0)
  end
  begin
     id 11 
     name lowerback
     direction 0.00381965 0.995707 -0.0924856   
     length 2.20825   
     axis 0 0 0   XYZ
    dof rx ry rz
    limits (-20.0 45.0)
           (-30.0 30.0)
           (-30.0 30.0)
  end
  begin
     id 12 
     name upperback
     direction -0.0139043 0.999634 -0.0231929   
     length 2.21517   
     axis 0 0 0   XYZ
    dof rx ry rz
    limits (-20.0 45.0)
           (-30.0 30.0)
           (-30.0 30.0)
  end
  begin
     id 13 
     name thorax
     direction -0.0143933 0.999691 0.0202892   
     length 2.22911   
     axis 0 0 0   XYZ
    dof rx ry rz
    limits (-20.0 45.0)
           (-30.0 30.0)
           (-30.0 30.0)
  end
  begin
     id 14 
     name lowerneck
     direction -0.0251153 0.981819 0.188153   
     length 1.61782   
     axis 0 0 0   XYZ
    dof rx ry rz
    limits (-20.0 45.0)
           (-30.0 30.0)
           (-30.0 30.0)
  end
  begin
     id 15 
     name upperneck
     direction 0.0563891 0.969357 -0.239095   
     length 1.64526   
     axis 0 0 0   XYZ
    dof rx ry rz
    limits (-20.0 45.0)
           (-30.0 30.0)
           (-30.0 30.0)
  end
  begin
     id 16
     name head
     direction 0.0208328 0.99459 -0.101773  
     length 1.67436  
     axis 0 0 0   XYZ
    dof rx ry rz
    limits (-20.0 45.0)
           (-30.0 30.0)
           (-30.0 30.0)
  end
  begin
     id 17 
     name lclavicle
     direction 0.917689 0.397224 0.00772059  
     length 3.31102  
     axis 0 0 0   XYZ
    dof ry rz
    limits (-20.0 10.0)
           (0.0 20.0)
  end
  begin
     id 18 
     name lhumerus
     direction 1 -4.4896e-011 2.32308e-027   
     length 5.25537   
     axis 180 -30 -90   XYZ
    dof rx ry rz
    limits (-60.0 90.0)
           (-90.0 90.0)
           (-90.0 90.0)
  end
  begin
     id 19
     name lradius
     direction 1 -4.49005e-011 -2.04271e-027   
     length 3.38855   
     axis 180 -30 -90   XYZ
    dof rx
    limits (-10.0 170.0)
  end
  begin
     id 20
     name lwrist
     direction 1 -4.48892e-011 2.56952e-028   
     length 1.69428   
     axis -5.12785e-016 90 90   XYZ
    dof ry
    limits (-180.0 0.0)
 end
  begin
     id 21 
     name lhand
     direction 1 -4.48966e-011 5.13905e-028   
     length 0.614516   
     axis -3.27915e-016 90 90   XYZ
    dof rx rz
    limits (-90.0 90.0)
           (-45.0 45.0)
  end
  begin
     id 22 
     name lfingers
     direction 1 -4.48979e-011 1.02781e-027   
     length 0.495439   
     axis -6.5583e-016 90 90   XYZ
    dof rx
    limits (0.0 90.0)
  end
  begin
     id 23
     name lthumb
     direction 0.707107 -6.35001e-011 0.707107   
     length 0.711354   
     axis -90 45 2.85299e-015   XYZ
    dof rx rz
    limits (-45.0 45.0)
           (-45.0 45.0)
  end
  begin
     id 24 
     name rclavicle
     direction -0.938556 0.342765 -0.0403177   
     length 3.27019  
     axis 0 0 0   XYZ 
    dof ry rz
    limits (-10.0 20.0)
           (-20.0 0.0)
  end
  begin
     id 25 
     name rhumerus
     direction -1 -4.48966e-011 2.52291e-027  
     length 5.38183   
     axis 180 30 90   XYZ
    dof rx ry rz
    limits (-90.0 60.0)
           (-90.0 90.0)
           (-90.0 90.0)
  end
  begin
     id 26 
     name rradius
     direction -1 -4.4896e-011 1.5797e-027   
     length 3.16988   
     axis 180 30 90   XYZ
    dof rx
    limits (-10.0 170.0)
  end
  begin
     id 27 
     name rwrist
     direction -1 -4.48947e-011 2.56952e-028   
     length 1.58494   
     axis -5.12785e-016 -90 -90   XYZ
    dof ry
    limits (-180.0 0.0)
  end
  begin
     id 28
     name rhand
     direction -1 -4.49098e-011 5.13905e-028   
     length 0.637679   
     axis -3.27915e-016 -90 -90   XYZ
    dof rx rz
    limits (-90.0 90.0)
           (-45.0 45.0)
  end
  begin
     id 29
     name rfingers
     direction -1 -4.49026e-011 1.02781e-027   
     length 0.514113   
     axis -6.5583e-016 -90 -90   XYZ
    dof rx
    limits (0.0 90.0)
  end
  begin
     id 30
     name rthumb
     direction -0.707107 -6.3491e-011 0.707107   
     length 0.738167   
     axis -90 -45 -2.85299e-015   XYZ
    dof rx rz
    limits (-45.0 45.0)
           (-45.0 45.0)
  end
:hierarchy
  begin
    root lhipjoint rhipjoint lowerback
    lhipjoint lfemur
    lfemur ltibia
    ltibia lfoot
    lfoot ltoes
    rhipjoint rfemur
    rfemur rtibia
    rtibia rfoot
    rfoot rtoes
    lowerback upperback
    upperback thorax
    thorax lowerneck lclavicle rclavicle
    lowerneck upperneck
    upperneck head
    lclavicle lhumerus
    lhumerus lradius
    lradius lwrist
    lwrist lhand lthumb
    lhand lfingers
    rclavicle rhumerus
    rhumerus rradius
    rradius rwrist
    rwrist rhand rthumb
    rhand rfingers
  end

#!OML:ASF H:\Swim\Project 1\Capture day 1\Session 1\swimmer.ASF
:FULLY-SPECIFIED
:DEGREES
3592
root 5.70753 10.1091 14.1721 75.4798 -0.1493 -1.17702
lowerback 7.93965 0.281643 -0.620349
upperback -10.3891 0.293641 -0.021523
thorax -16.0873 0.211782 0.25871
lowerneck -29.2275 -7.47573 -8.91525
upperneck -12.9338 -6.91924 15.6936
head 1.4078 -2.6314 5.82999
rclavicle -2.48481e-015 0
rhumerus 33.398 33.7241 -39.7509
rradius 135.804
rwrist -44.1754
rhand -46.3661 -1.03983
rfingers 7.12502
rthumb -19.0978 -30.1222
lclavicle -2.48481e-015 0
lhumerus 35.5386 -33.7149 35.6722
lradius 134.728
lwrist 28.0203
lhand -46.2827 -327.173
lfingers 7.12502
lthumb -19.0175 421.917
rfemur -0.888952 -7.41178 9.44038
rtibia 53.0227
rfoot -10.0747 -6.62729
rtoes -17.0373
lfemur -2.58148 7.0075 -17.3403
ltibia 47.4423
lfoot 15.0251 1.15498
ltoes 12.1926
3593
root 5.70726 10.156 14.1622 75.2443 -0.157059 -1.15882
lowerback 8.03968 0.271644 -0.600334
upperback -10.4235 0.281659 -0.0231112
thorax -16.1957 0.20378 0.247792
lowerneck -29.3616 -7.45273 -8.90363
upperneck -12.6077 -6.91363 15.6562
head 1.52038 -2.6149 5.81017
rclavicle -1.68967e-015 -4.96962e-016
rhumerus 33.9727 32.66 -40.4831
rradius 135.607
rwrist -45.1652
rhand -46.2791 -1.16824
rfingers 7.12502
rthumb -19.0141 -30.2588
lclavicle -1.68967e-015 -4.96962e-016
lhumerus 36.2169 -32.4855 36.1897
lradius 134.409
lwrist 29.0579
lhand -46.2315 -326.854
lfingers 7.12502
lthumb -18.9683 422.241
rfemur -0.26137 -7.86309 8.85011
rtibia 54.9071
rfoot -10.0221 -6.47128
rtoes -16.8314
lfemur -1.98766 7.6486 -16.9751
ltibia 49.0107
lfoot 15.5716 0.997501
ltoes 12.3545
3594
root 5.70655 10.2042 14.1533 74.9958 -0.177794 -1.13356
lowerback 8.1653 0.261936 -0.607907
upperback -10.4428 0.265448 -0.0250332
thorax -16.3026 0.197022 0.252874
lowerneck -29.5166 -7.42669 -8.88007
upperneck -12.2175 -6.91284 15.6087
head 1.65474 -2.59917 5.78352
rclavicle 4.22417e-015 7.45443e-016
rhumerus 34.5181 31.4266 -41.3185
rradius 135.388
rwrist -46.3173
rhand -46.1738 -1.67029
rfingers 7.12502
rthumb -18.9128 -30.7708
lclavicle 4.22417e-015 7.45443e-016
lhumerus 36.8858 -31.1303 36.7831
lradius 134.058
lwrist 30.4001
lhand -46.1549 -326.624
lfingers 7.12502
lthumb -18.8947 422.478
rfemur 0.366134 -8.26245 8.2278
rtibia 56.8922
rfoot -9.95521 -6.33577
rtoes -16.4324
lfemur -1.39818 8.26444 -16.5914
ltibia 50.708
lfoot 16.1054 0.965406
ltoes 12.6978
3595
root 5.70568 10.253 14.1466 74.7424 -0.195486 -1.10364
lowerback 8.30561 0.252305 -0.622854
upperback -10.4477 0.248308 -0.0250787
thorax -16.4012 0.190853 0.264475
lowerneck -29.6983 -7.40012 -8.8551
upperneck -11.7563 -6.91703 15.5549
head 1.8143 -2.58325 5.75306
rclavicle -3.57812e-015 -3.47873e-016
rhumerus 35.0301 30.0205 -42.2659
rradius 135.126
rwrist -47.5897
rhand -46.0522 -2.58837
rfingers 7.12502
rthumb -18.7959 -31.7003
lclavicle -3.57812e-015 -3.47873e-016
lhumerus 37.5543 -29.6553 37.4593
lradius 133.65
lwrist 31.978
lhand -46.0183 -326.503
lfingers 7.12502
lthumb -18.7633 422.612
rfemur 0.994685 -8.62182 7.58854
rtibia 58.9549
rfoot -9.83866 -6.18614
rtoes -15.8087
lfemur -0.827715 8.84991 -16.1752
ltibia 52.5364
lfoot 16.6387 1.00682
ltoes 13.0653
3596
root 5.70481 10.302 14.1429 74.4885 -0.198193 -1.07144
lowerback 8.45802 0.243044 -0.630871
upperback -10.4413 0.233412 -0.0205667
thorax -16.4938 0.185285 0.276915
lowerneck -29.913 -7.37701 -8.83808
upperneck -11.2101 -6.92943 15.4983
head 2.00521 -2.56757 5.72103
rclavicle -5.61567e-015 -1.39149e-015
rhumerus 35.5183 28.4686 -43.3005
rradius 134.762
rwrist -48.9107
rhand -45.9023 -3.69885
rfingers 7.12502
rthumb -18.6517 -32.8247
lclavicle -5.61567e-015 -1.39149e-015
lhumerus 38.2309 -28.0942 38.2125
lradius 133.146
lwrist 33.6497
lhand -45.7938 -326.46
lfingers 7.12502
lthumb -18.5473 422.676
rfemur 1.62408 -8.94483 6.94656
rtibia 61.0744
rfoot -9.68738 -6.0414
rtoes -15.2641
lfemur -0.28251 9.39679 -15.7161
ltibia 54.4935
lfoot 17.1644 1.1034
ltoes 13.4922
3597
root 5.70423 10.3503 14.1426 74.2453 -0.177888 -1.03415
lowerback 8.62465 0.23394 -0.620669
upperback -10.436 0.22237 -0.0116271
thorax -16.5972 0.179751 0.283313
lowerneck -30.1466 -7.36039 -8.83277
upperneck -10.574 -6.95443 15.4437
head 2.22846 -2.55453 5.68919
rclavicle -5.41688e-015 -1.44119e-015
rhumerus 35.9994 26.8542 -44.3544
rradius 134.291
rwrist -50.301
rhand -45.7209 -4.80988
rfingers 7.12502
rthumb -18.4773 -33.9523
lclavicle -5.41688e-015 -1.44119e-015
lhumerus 38.9259 -26.5033 39.0157
lradius 132.508
lwrist 35.2693
lhand -45.4607 -326.444
lfingers 7.12502
lthumb -18.2269 422.722
rfemur 2.25093 -9.24083 6.31036
rtibia 63.2292
rfoot -9.50188 -5.88767
rtoes -15.0246
lfemur 0.222792 9.89741 -15.2118
ltibia 56.5759
lfoot 17.6742 1.23438
ltoes 13.9628
3598
root 5.70376 10.3975 14.1459 74.0119 -0.134701 -0.994879
lowerback 8.80025 0.225988 -0.593863
upperback -10.4301 0.216547 0.00221279
thorax -16.706 0.175095 0.284808
lowerneck -30.4008 -7.34713 -8.82827
upperneck -9.84785 -6.99117 15.3823
head 2.48347 -2.5444 5.65318
rclavicle -2.48481e-016 1.19271e-015
rhumerus 36.504 25.2359 -45.3639
rradius 133.709
rwrist -51.7526
rhand -45.5163 -5.78984
rfingers 7.12502
rthumb -18.2804 -34.9509
lclavicle -2.48481e-016 1.19271e-015
lhumerus 39.6637 -24.9368 39.8238
lradius 131.703
lwrist 36.7019
lhand -45.0453 -326.436
lfingers 7.12502
lthumb -17.8273 422.766
rfemur 2.8789 -9.50318 5.68326
rtibia 65.4053
rfoot -9.3049 -5.71842
rtoes -15.06
lfemur 0.686655 10.3614 -14.6597
ltibia 58.7777
lfoot 18.1644 1.35768
ltoes 14.3582
3599
root 5.70323 10.4436 14.1528 73.7878 -0.074879 -0.951998
lowerback 8.98335 0.219335 -0.558814
upperback -10.4221 0.214677 0.0197911
thorax -16.8171 0.171614 0.285052
lowerneck -30.7275 -7.33625 -8.78527
upperneck -8.987 -7.05114 15.274
head 2.78746 -2.54277 5.59156
rclavicle 3.27995e-015 3.97569e-016
rhumerus 37.0624 23.6425 -46.2863
rradius 132.999
rwrist -53.2422
rhand -45.3139 -6.56005
rfingers 7.12502
rthumb -18.0857 -35.7392
lclavicle 3.27995e-015 3.97569e-016
lhumerus 40.4592 -23.4309 40.6034
lradius 130.724
lwrist 37.9291
lhand -44.5956 -326.413
lfingers 7.12502
lthumb -17.3945 422.829
rfemur 3.50865 -9.72534 5.06239
rtibia 67.5951
rfoot -9.11206 -5.51572
rtoes -15.3001
lfemur 1.11188 10.7901 -14.0662
ltibia 61.0913
lfoot 18.6221 1.47873
ltoes 14.6666
3600
root 5.7025 10.4882 14.1634 73.5732 -0.0102425 -0.903719
lowerback 9.16808 0.216448 -0.531625
upperback -10.4094 0.217329 0.039736
thorax -16.9238 0.171423 0.291375
lowerneck -31.0721 -7.32623 -8.73423
upperneck -8.04772 -7.12102 15.1498
head 3.11888 -2.54446 5.52221
rclavicle -2.33572e-015 8.69683e-016
rhumerus 37.697 22.0989 -47.085
rradius 132.146
rwrist -54.7202
rhand -45.1183 -7.04368
rfingers 7.12502
rthumb -17.8975 -36.2401
lclavicle -2.33572e-015 8.69683e-016
lhumerus 41.3216 -22.0104 41.3366
lradius 129.58
lwrist 38.9789
lhand -44.1453 -326.393
lfingers 7.12502
lthumb -16.9611 422.886
rfemur 4.13512 -9.90655 4.43503
rtibia 69.8007
rfoot -8.94023 -5.26303
rtoes -15.6131
lfemur 1.5001 11.1892 -13.4436
ltibia 63.5067
lfoot 19.0496 1.58799
ltoes 14.8759
3601
root 5.70155 10.5313 14.1773 73.3685 0.0587721 -0.851144
lowerback 9.34958 0.216934 -0.512726
upperback -10.3874 0.223918 0.0625312
thorax -17.0168 0.174318 0.304707
lowerneck -31.4447 -7.31775 -8.67316
upperneck -7.03476 -7.20085 15.0072
head 3.47764 -2.54947 5.44421
rclavicle -8.44835e-016 -1.04362e-015
rhumerus 38.4306 20.5737 -47.7678
rradius 131.116
rwrist -56.0833
rhand -44.9834 -7.44605
rfingers 7.12502
rthumb -17.7677 -36.6543
lclavicle -8.44835e-016 -1.04362e-015
lhumerus 42.2568 -20.6693 42.0127
lradius 128.292
lwrist 39.9277
lhand -43.7153 -326.377
lfingers 7.12502
lthumb -16.5471 422.938
rfemur 4.75433 -10.0451 3.79908
rtibia 72.0271
rfoot -8.78111 -4.93997
rtoes -15.7385
lfemur 1.85244 11.5578 -12.7917
ltibia 66.0153
lfoot 19.4468 1.7142
ltoes 15.084
3602
root 5.70029 10.573 14.1938 73.1715 0.111347 -0.790015
lowerback 9.52327 0.220694 -0.522527
upperback -10.3501 0.229782 0.082815
thorax -17.0853 0.180151 0.331505
lowerneck -31.8344 -7.31083 -8.61582
upperneck -5.97039 -7.28461 14.8574
head 3.85661 -2.55504 5.36467
rclavicle -3.67752e-015 3.72721e-016
rhumerus 39.2738 19.075 -48.3386
rradius 129.902
rwrist -57.2972
rhand -44.8721 -7.79973
rfingers 7.12502
rthumb -17.6605 -37.0177
lclavicle -3.67752e-015 3.72721e-016
lhumerus 43.2685 -19.4277 42.5912
lradius 126.89
lwrist 40.6836
lhand -43.3295 -326.264
lfingers 7.12502
lthumb -16.1756 423.081
rfemur 5.36203 -10.1489 3.12753
rtibia 74.2807
rfoot -8.62851 -4.55875
rtoes -15.7697
lfemur 2.17184 11.8976 -12.1339
ltibia 68.6071
lfoot 19.8077 1.85906
ltoes 15.3228
